<svg id="Layer_1" data-name="Layer 1" xmlns="http://www.w3.org/2000/svg" viewBox="0 0 136.2 132.7"><defs><style>.cls-1{fill:#8d4e9e;}.cls-2{fill:#176b9f;}.cls-3{fill:#0677a6;}.cls-4{fill:#1a8dcd;}.cls-5{fill:#05afe6;}.cls-6{fill:#992f20;}.cls-7{fill:#d86527;}.cls-8{font-size:12.96px;fill:#eadf14;font-family:MyriadPro-Regular, Myriad Pro;}.cls-9{letter-spacing:0em;}.cls-10{letter-spacing:0.02em;}.cls-11{letter-spacing:-0.01em;}.cls-12{letter-spacing:0em;}</style></defs><circle class="cls-1" cx="66.27" cy="58.08" r="58.08"/><path class="cls-2" d="M463.08,257.92v-.1a12.19,12.19,0,0,1,.26-2.53L453,221.11a6.37,6.37,0,0,1,.11-4.07,3.12,3.12,0,0,1,2.75-2.27h29.93c1.57,0,2.84,1.84,2.84,4.13v34.38a12,12,0,0,1,.88,4.54,12.35,12.35,0,0,1,.31-2.76V218.9c0-2.29,1.3-4.13,2.9-4.13h30.38a3.16,3.16,0,0,1,2.79,2.27,6.26,6.26,0,0,1,.11,4.08L515.5,255a12,12,0,0,1,.34,2.86v.1l8.42-28.32a3.54,3.54,0,0,1,.57-1.15l1.73-5.68c1.33-4.38-.95-9.26-4.34-9.26H456.69c-3.39,0-5.67,4.88-4.33,9.26l1.73,5.68a3.52,3.52,0,0,1,.56,1.15Z" transform="translate(-422.11 -198.46)"/><path class="cls-3" d="M469.48,248.81h13.57c2.36,0,4.42,1.8,5.53,4.47V218.9c0-2.29-1.27-4.13-2.84-4.13H455.81a3.12,3.12,0,0,0-2.75,2.27,6.37,6.37,0,0,0-.11,4.07l10.39,34.18C464.12,251.55,466.57,248.81,469.48,248.81Z" transform="translate(-422.11 -198.46)"/><path class="cls-4" d="M533.85,229.31a4.67,4.67,0,0,1,.29,1.62V231c0,1.91-1.1,3.46-2.45,3.46h-1.07c-1.09,0-2,1-2.36,2.47,0,0-3.37,29.64-10.53,29.64H461.18c-7.16,0-10.53-29.64-10.53-29.64-.31-1.47-1.27-2.47-2.35-2.47h-1.07c-1.36,0-2.46-1.55-2.46-3.46v-.07a4.45,4.45,0,0,1,.3-1.62,4,4,0,0,0-1.08,2.84v.07c0,1.91,1.12,3.46,2.5,3.46h1.09c1.11,0,2.08,1,2.4,2.47,0,0,3.43,29.64,10.71,29.64h57.54c7.28,0,10.71-29.64,10.71-29.64.32-1.47,1.29-2.47,2.39-2.47h1.09c1.38,0,2.5-1.55,2.5-3.46v-.07A4,4,0,0,0,533.85,229.31Z" transform="translate(-422.11 -198.46)"/><path class="cls-5" d="M444.77,231c0,1.91,1.1,3.46,2.46,3.46h1.07c1.08,0,2,1,2.35,2.47,0,0,3.37,29.64,10.53,29.64h56.55c7.16,0,10.53-29.64,10.53-29.64.31-1.47,1.27-2.47,2.36-2.47h1.07c1.35,0,2.45-1.55,2.45-3.46v-.07a4.67,4.67,0,0,0-.29-1.62,2.51,2.51,0,0,0-2.16-1.83h-5.16a2.14,2.14,0,0,0-1.7,1,3.54,3.54,0,0,0-.57,1.15l-8.42,28.32H463.08l-8.43-28.32a3.52,3.52,0,0,0-.56-1.15,2.14,2.14,0,0,0-1.7-1h-5.16a2.5,2.5,0,0,0-2.16,1.83,4.45,4.45,0,0,0-.3,1.62Z" transform="translate(-422.11 -198.46)"/><path class="cls-3" d="M495.86,248.81h13.57c2.83,0,5.22,2.58,6.07,6.15L526,221.12a6.26,6.26,0,0,0-.11-4.08,3.16,3.16,0,0,0-2.79-2.27H492.67c-1.6,0-2.9,1.84-2.9,4.13v36.16C490.6,251.44,493,248.81,495.86,248.81Z" transform="translate(-422.11 -198.46)"/><path class="cls-4" d="M515.5,255c-.85-3.57-3.24-6.15-6.07-6.15H495.86c-2.85,0-5.26,2.63-6.09,6.25a12.35,12.35,0,0,0-.31,2.76,12,12,0,0,0-.88-4.54c-1.11-2.67-3.17-4.47-5.53-4.47H469.48c-2.91,0-5.36,2.74-6.14,6.48a12.19,12.19,0,0,0-.26,2.53v.1h52.76v-.1A12,12,0,0,0,515.5,255Z" transform="translate(-422.11 -198.46)"/><polygon class="cls-6" points="41.38 86.37 46.67 69.33 39.43 69.33 41.38 86.37"/><polygon class="cls-7" points="37.76 86.37 41.38 86.37 39.43 69.33 37.76 86.37"/><polygon class="cls-7" points="93.3 86.37 96.92 86.37 88.02 69.33 93.3 86.37"/><polygon class="cls-6" points="96.92 86.37 95.25 69.33 88.02 69.33 96.92 86.37"/><text class="cls-8" transform="translate(29.6 96.72) scale(0.91 1)"><tspan class="cls-9">A</tspan><tspan x="7.89" y="0">hmet </tspan><tspan class="cls-10" x="39.43" y="0">K</tspan><tspan class="cls-11" x="46.66" y="0">a</tspan><tspan class="cls-12" x="52.81" y="0">y</tspan><tspan x="58.86" y="0">acan</tspan></text></svg>